<?xml version="1.0" encoding="UTF-8"?>
<svg id="Layer_2" data-name="Layer 2" xmlns="http://www.w3.org/2000/svg" viewBox="0 0 1335.59 110.79">
  <defs>
    <style>
      .cls-1 {
        fill: #1E233B;
      }
    </style>
  </defs>
  <g id="Layer_1-2" data-name="Layer 1">
    <g>
      <path class="cls-1" d="m986.46,96.08c5.01,12.88,10.02,25.76,15.03,38.64-.18.13-.37.26-.55.39-4.93-4.98-9.87-9.95-14.78-14.96-10.51-10.72-21-21.47-31.5-32.21-5.87-6-11.78-11.96-17.55-18.04-1.59-1.67-3.25-2.26-5.52-2.24-13.7.09-27.39,0-41.09.09-2.27.02-3.88-.61-5.51-2.24-15.95-16.07-32.03-32.01-47.96-48.1-1.89-1.91-3.26-2.12-5.65-.89-23.25,11.93-46.58,23.7-69.84,35.62-2.24,1.15-3.63.98-5.49-.72-7.99-7.29-16.14-14.41-24.24-21.57-.48-.42-1.3-1.13-1.59-.98-3.11,1.65-6.24,3.3-9.15,5.25-1.05.71.34,1.49.86,2.04,11.38,12.18,22.8,24.33,34.17,36.51,11.37,12.18,22.71,24.4,34.04,36.62.41.44,1.13.74.92,1.98-30.49-16.73-60.85-33.39-91.22-50.04l-.49.51c23.97,32.95,47.93,65.89,71.9,98.84-.18.16-.36.32-.54.48-41.09-34.43-82.18-68.85-123.27-103.28-.26.14-.52.29-.77.43,2.91,21.16,5.81,42.33,8.84,64.36-4.38-3.82-8.12-7.02-11.8-10.28-22.29-19.77-44.57-39.56-66.86-59.33-3.71-3.29-7.52-6.48-11.14-9.87-1.96-1.83-4.39-1.4-6.57-1.7-23.45-3.21-46.93-6.26-70.4-9.33-.82-.11-1.73-.46-2.71.4,20.43,38.47,40.88,76.97,61.33,115.47l-.45.47c-2.32-1.69-4.66-3.36-6.95-5.08-21.28-15.92-42.54-31.86-63.83-47.77-9.53-7.13-19.16-14.15-28.6-21.4-2.08-1.6-3.41-1.49-5.39-.03-6.47,4.79-13.11,9.34-19.58,14.13-1.98,1.47-3.61,1.44-5.72.33-9.85-5.16-19.78-10.18-30.06-15.44-1.47,7.27-2.88,14.2-4.28,21.13-.07.32,0,.7-.14.98-.54,1.05,0,2.81-1.14,3.21-1.26.45-1.96-1.15-2.81-1.94-17.94-16.86-35.88-33.73-53.76-50.64-1.28-1.21-2.08-1.42-3.58-.27-6.47,4.97-13.04,9.81-19.62,14.65-1.73,1.27-2.48,2.72-2.6,4.97-.51,9.14-1.38,18.25-1.9,27.39-.14,2.4-1.42,2.26-3.03,2.26-10.6-.02-21.21-.01-31.81,0q-4.04,0-1.98,3.61c9.44,16.46,18.88,32.92,28.3,49.39.41.72,1.18,1.36.95,2.39-.89.63-1.91.35-2.86.35-34.68.02-69.37.02-104.05.03-.55,0-1.11.02-1.66-.01-.63-.04-1.44.18-1.7-.63-.24-.74.42-1.2.89-1.63,3.19-2.89,6.37-5.79,9.6-8.64,22.75-20.09,45.52-40.16,68.28-60.24,18.78-16.57,37.59-33.11,56.3-49.76,1.83-1.63,2.73-1.23,4.27.2,14.63,13.61,29.36,27.11,43.96,40.75,1.87,1.75,2.91,1.81,4.81.03,5.47-5.12,11.24-9.92,16.77-14.99,1.62-1.49,2.48-1.43,3.97.18,6.14,6.66,12.46,13.14,18.65,19.75,1.34,1.43,2.18,1.84,3.9.27,4.72-4.32,9.64-8.43,14.57-12.5,7.24-5.98,12.19-13.91,18.06-21.04,8.9-10.82,17.61-21.8,26.3-32.79,1.68-2.12,2.86-2.44,5.37-.91,21.29,12.98,44.42,19.26,69.38,17.81,23.34-1.35,44.88-8.68,64.7-21.01,1.6-1,3.14-1.35,4.96-1.35,30.38.03,60.75.05,91.13-.04,2.25,0,3.32.64,4.11,2.74,2.54,6.81,5.44,13.48,7.9,20.32.89,2.47,1.79,2.23,3.49,1.04,3.6-2.54,7.33-4.92,10.87-7.55,1.59-1.18,2.74-1.17,4.39-.07,9.11,6.03,18.34,11.87,27.43,17.92,2.18,1.45,3.95,1.65,6.36.43,25.34-12.77,50.76-25.38,76.08-38.17,2.36-1.19,3.81-1.02,5.83.62,14.57,11.81,29.28,23.45,43.85,35.27,1.63,1.32,2.76.76,4.15.11,14.16-6.69,28.35-13.34,42.46-20.14,2.14-1.03,3.41-.71,5.12.83,15.93,14.3,31.97,28.47,47.91,42.76,1.44,1.29,2.38,1.24,3.97.32,5.05-2.94,10.25-5.62,15.33-8.52,1.68-.96,2.84-.94,4.35.45,16.3,15.05,32.7,29.99,48.98,45.07,1.94,1.8,3.68,2.19,6.21,1.68,18.04-3.61,35.87-7.99,53.35-13.76,1.22-.4,2.24-.6,3.38.31,10.46,8.29,20.96,16.53,31.43,24.8.16.13.23.36.9,1.48-11.05-6.12-21.27-11.79-31.79-17.63,1.07,5.26,2.83,9.05,8,11.39,9.84,4.44,19.28,9.76,28.88,14.72,1.76.91,3.07,7.73,1.71,9.12-.9.91-2.12.42-3.16.31-8.77-.91-17.52-1.89-26.29-2.84-11.51-1.25-22.99-3-34.52-3.59-10.68-.55-19.9-5.04-29.45-8.83-15.87-6.31-31.69-12.73-47.55-19.09-.68-.27-1.32-.89-2.48-.36,16.07,19.77,32.07,39.47,48.08,59.18-.15.18-.3.35-.45.53-28.96-19.78-57.91-39.56-86.87-59.34-.16.16-.33.32-.49.48Z"/>

    </g>
  </g>
</svg>