<svg id="svg" version="1.1" xmlns="http://www.w3.org/2000/svg" xmlns:xlink="http://www.w3.org/1999/xlink" width="400" height="356.21890547263683" viewBox="0, 0, 400,356.21890547263683"><g id="svgg"><path id="path0" d="M265.046 28.341 C 263.317 29.395,258.273 30.488,251.872 31.196 C 246.818 31.755,245.547 32.376,246.357 33.889 C 246.708 34.544,247.393 34.788,251.337 35.660 C 253.832 36.212,255.467 37.200,256.248 38.626 C 257.063 40.117,257.211 115.775,256.402 118.055 C 255.188 121.476,248.166 123.248,248.128 120.143 C 248.108 118.513,247.718 118.290,245.354 118.558 C 243.518 118.766,242.932 118.681,241.538 118.006 C 238.652 116.609,238.656 116.626,238.859 106.432 C 239.311 83.815,238.899 78.316,236.547 75.521 C 236.087 74.974,235.603 74.036,235.472 73.437 C 235.193 72.171,234.517 71.630,227.663 67.201 C 225.567 65.847,218.736 66.159,215.152 67.772 C 213.583 68.478,210.856 69.675,209.091 70.431 C 205.565 71.941,202.023 74.988,201.565 76.904 C 201.434 77.450,200.869 78.779,200.308 79.857 C 199.054 82.269,199.052 82.156,200.369 83.732 C 200.964 84.444,201.612 85.227,201.809 85.472 C 202.943 86.883,204.991 85.600,204.991 83.480 C 204.991 82.814,205.422 81.891,206.150 80.997 C 206.787 80.214,207.727 78.795,208.240 77.842 C 209.691 75.144,211.559 74.364,215.995 74.604 C 223.756 75.023,227.520 78.500,228.244 85.918 C 228.868 92.320,228.211 93.526,223.406 94.796 C 221.505 95.298,219.862 95.976,219.203 96.530 C 218.513 97.111,216.810 97.791,214.498 98.408 C 212.504 98.941,208.983 99.883,206.673 100.502 C 199.433 102.442,198.030 104.274,198.049 111.765 C 198.065 118.110,201.313 124.973,204.715 125.852 C 205.553 126.068,207.177 126.562,208.324 126.949 C 210.314 127.621,210.508 127.626,212.602 127.069 C 213.808 126.747,215.875 126.291,217.195 126.055 C 218.690 125.788,219.900 125.341,220.404 124.869 C 220.848 124.453,221.934 123.796,222.816 123.410 C 223.699 123.024,224.973 122.292,225.649 121.782 C 227.158 120.643,228.048 120.602,228.331 121.658 C 229.424 125.742,229.541 125.868,233.178 126.879 C 236.509 127.806,237.134 127.809,239.929 126.916 C 241.156 126.524,242.639 126.203,243.224 126.203 C 243.809 126.203,244.910 125.853,245.671 125.426 L 247.054 124.649 247.882 125.426 C 248.728 126.221,275.741 126.692,276.853 125.930 C 279.206 124.320,276.982 122.184,271.932 121.204 C 267.712 120.386,267.406 119.178,266.966 101.604 C 266.453 81.121,266.747 79.019,270.222 78.255 C 270.797 78.129,271.678 77.703,272.178 77.309 C 276.271 74.090,284.447 74.347,288.989 77.837 C 294.093 81.759,293.939 80.981,293.939 102.852 C 293.939 122.206,294.455 120.559,287.968 121.907 C 285.117 122.499,283.838 124.337,285.276 125.775 C 285.891 126.390,313.396 126.390,314.011 125.775 C 315.594 124.192,314.384 122.566,310.906 121.602 C 305.328 120.056,305.369 120.152,305.258 108.394 C 305.016 82.777,304.998 82.256,304.307 80.952 C 303.695 79.797,302.545 76.916,301.343 73.527 C 300.784 71.950,298.460 69.973,294.296 67.533 C 292.194 66.301,284.540 65.965,281.996 66.993 C 278.012 68.603,270.625 72.566,269.567 73.663 C 268.788 74.470,268.101 74.867,267.606 74.797 L 266.845 74.688 266.869 55.258 C 266.893 36.320,266.914 35.750,267.695 32.708 C 269.006 27.600,268.265 26.379,265.046 28.341 M73.704 35.890 C 72.475 38.587,73.894 40.398,77.563 40.814 C 80.787 41.180,81.719 41.580,83.442 43.335 L 85.027 44.949 85.260 52.332 C 85.389 56.393,85.534 66.693,85.584 75.223 C 85.728 100.280,86.062 105.425,87.674 107.454 C 88.213 108.131,89.255 110.500,89.991 112.717 C 91.096 116.048,91.608 117.059,92.940 118.535 C 93.826 119.517,94.862 120.672,95.242 121.101 C 97.299 123.426,101.893 125.888,104.726 126.185 C 106.245 126.344,108.369 126.829,109.447 127.262 C 113.832 129.023,126.157 129.043,131.016 127.297 C 132.193 126.874,134.391 126.383,135.902 126.205 C 139.245 125.811,140.083 125.399,142.621 122.898 C 143.710 121.826,144.913 120.848,145.295 120.726 C 145.677 120.604,146.471 119.790,147.059 118.918 C 147.647 118.046,148.479 117.171,148.909 116.973 C 149.772 116.574,151.719 112.794,153.073 108.886 C 153.544 107.528,154.510 104.893,155.220 103.030 C 157.290 97.598,158.385 84.423,158.817 59.715 C 159.117 42.618,159.283 42.108,164.884 41.112 C 168.980 40.384,170.161 38.924,169.040 35.976 L 168.713 35.116 153.132 35.143 C 135.899 35.174,136.914 35.024,136.904 37.546 C 136.896 39.485,137.410 40.220,138.953 40.476 C 143.410 41.218,146.678 42.085,147.361 42.707 C 147.783 43.091,148.476 43.583,148.900 43.802 C 150.245 44.495,150.486 46.988,150.693 62.389 C 151.047 88.657,150.261 100.591,147.805 106.239 C 147.080 107.906,146.342 109.622,146.165 110.054 C 145.987 110.486,145.375 111.081,144.803 111.376 C 144.204 111.686,143.459 112.562,143.043 113.443 C 142.123 115.394,140.694 116.934,139.804 116.934 C 139.423 116.934,137.932 117.415,136.490 118.003 C 130.014 120.642,120.330 120.634,114.410 117.984 C 113.120 117.407,111.713 116.934,111.283 116.934 C 110.853 116.934,109.764 116.252,108.863 115.419 C 107.963 114.586,106.532 113.262,105.684 112.478 C 103.230 110.209,101.730 107.799,99.801 103.030 C 98.709 100.332,98.337 89.333,98.471 63.745 L 98.574 44.246 99.809 42.972 C 101.095 41.646,102.224 41.220,105.526 40.814 C 108.528 40.446,109.091 39.942,109.091 37.624 C 109.091 34.993,110.227 35.151,91.134 35.132 L 74.057 35.116 73.704 35.890 M177.330 49.018 C 176.993 49.532,176.130 50.252,175.412 50.618 C 174.693 50.985,173.895 51.539,173.637 51.850 C 173.379 52.161,172.228 52.916,171.079 53.528 C 168.437 54.936,168.276 55.459,168.273 62.612 C 168.271 68.978,168.469 68.656,164.107 69.356 C 160.426 69.947,159.715 70.521,159.715 72.901 C 159.715 74.988,160.258 75.324,163.930 75.509 C 165.631 75.595,167.291 75.805,167.618 75.976 C 168.160 76.259,168.227 78.037,168.370 95.808 C 168.535 116.430,168.763 119.678,170.190 121.747 C 171.841 124.143,173.752 125.840,175.027 126.044 C 175.723 126.155,177.380 126.579,178.709 126.986 C 181.219 127.754,184.523 127.718,186.678 126.898 C 187.190 126.704,188.628 126.400,189.875 126.224 C 193.941 125.648,196.435 122.725,196.435 118.533 C 196.435 117.029,195.701 116.911,193.249 118.024 C 189.585 119.686,182.632 118.441,180.623 115.764 C 178.902 113.470,178.157 104.410,178.321 87.761 C 178.457 73.997,177.337 75.485,187.445 75.641 C 196.252 75.776,195.526 76.129,195.850 71.563 C 196.096 68.096,195.885 67.539,194.474 67.918 C 194.082 68.024,190.632 68.210,186.808 68.332 C 178.026 68.613,178.750 69.273,178.969 61.185 C 179.330 47.825,179.122 46.283,177.330 49.018 M227.986 106.595 C 227.986 115.648,227.816 116.367,225.537 116.949 C 224.727 117.156,223.313 117.638,222.394 118.021 C 220.090 118.980,217.648 118.914,215.186 117.825 C 214.077 117.335,212.959 116.934,212.701 116.934 C 211.958 116.934,211.124 115.798,210.734 114.255 C 210.536 113.474,210.103 111.924,209.771 110.812 L 209.167 108.790 210.161 106.509 L 211.155 104.228 214.305 102.711 C 217.564 101.142,225.529 98.746,227.094 98.863 L 227.986 98.930 227.986 106.595 M58.111 131.811 C 57.424 131.892,54.963 132.508,52.641 133.180 C 50.319 133.853,48.177 134.403,47.880 134.403 C 47.300 134.403,42.198 135.879,39.572 136.806 C 38.690 137.118,37.326 137.838,36.542 138.407 C 34.489 139.895,31.716 141.779,30.507 142.508 C 28.211 143.892,23.064 149.692,21.572 152.578 C 21.280 153.142,20.719 153.706,20.326 153.831 C 19.932 153.956,19.516 154.489,19.401 155.015 C 19.068 156.550,18.532 157.923,17.082 160.963 C 15.746 163.762,15.248 165.958,13.847 175.223 C 13.088 180.239,15.344 197.085,17.081 199.373 C 17.996 200.577,19.251 203.743,19.251 204.845 C 19.251 205.493,19.694 206.250,20.588 207.131 C 21.324 207.855,22.406 209.141,22.995 209.988 C 23.583 210.834,24.765 212.219,25.621 213.064 C 26.477 213.910,27.439 215.116,27.760 215.744 C 28.213 216.633,29.162 217.305,32.032 218.767 C 34.061 219.801,36.256 221.055,36.910 221.553 C 37.564 222.052,38.262 222.460,38.462 222.460 C 38.661 222.460,40.089 223.016,41.635 223.696 C 52.524 228.483,82.980 227.275,86.491 221.916 C 86.796 221.451,87.571 220.760,88.212 220.382 C 89.478 219.635,90.909 217.108,90.909 215.619 C 90.909 214.636,92.137 211.566,92.878 210.695 C 94.727 208.524,95.780 203.625,94.634 202.524 C 92.906 200.864,90.910 201.660,90.908 204.011 C 90.906 205.570,89.749 207.372,88.308 208.058 C 87.631 208.381,86.693 209.329,86.107 210.282 C 85.545 211.196,84.465 212.504,83.706 213.191 C 82.948 213.877,82.053 214.983,81.716 215.649 C 80.643 217.773,74.816 219.761,68.449 220.176 C 59.971 220.727,46.493 217.741,45.847 215.168 C 45.705 214.603,45.109 214.008,44.245 213.566 C 42.711 212.784,34.938 205.182,34.938 204.465 C 34.938 203.772,33.140 199.918,32.439 199.109 C 32.100 198.717,31.247 196.631,30.545 194.474 C 29.842 192.317,28.928 189.604,28.513 188.444 C 27.798 186.444,27.767 185.814,27.901 176.145 C 28.046 165.651,28.089 165.313,29.653 162.389 C 29.968 161.800,30.468 160.517,30.764 159.537 C 31.669 156.544,33.680 152.675,35.675 150.089 C 36.204 149.403,36.878 148.264,37.173 147.559 C 37.481 146.819,38.253 145.939,38.997 145.480 C 39.705 145.042,40.285 144.565,40.285 144.421 C 40.285 143.843,46.336 140.100,48.908 139.087 C 55.721 136.403,68.397 136.277,74.133 138.835 C 75.615 139.496,77.367 140.150,78.026 140.287 C 79.531 140.602,81.821 142.643,82.782 144.528 C 83.186 145.320,83.822 146.381,84.195 146.885 C 84.890 147.824,86.261 153.639,86.270 155.679 C 86.277 157.332,87.156 158.051,88.885 157.819 C 90.731 157.572,90.771 157.480,91.050 152.821 C 91.388 147.156,92.284 138.677,92.694 137.245 C 93.173 135.577,92.645 135.147,89.628 134.750 C 84.103 134.022,82.425 133.749,80.214 133.220 C 73.959 131.725,64.166 131.101,58.111 131.811 M294.062 147.089 C 292.749 148.751,291.007 150.072,287.989 151.695 L 284.670 153.479 284.492 159.794 C 284.284 167.173,284.443 166.848,280.357 168.227 C 277.638 169.145,277.573 169.195,276.876 170.903 C 275.948 173.173,276.304 173.452,280.460 173.711 C 284.915 173.989,284.545 172.219,284.420 192.692 C 284.268 217.612,284.500 218.862,290.055 223.054 C 297.398 228.596,311.204 225.929,314.060 218.417 C 314.883 216.253,314.138 215.742,311.721 216.813 C 309.192 217.934,303.766 218.162,301.240 217.253 C 298.829 216.386,297.260 214.123,296.610 210.574 C 296.094 207.756,295.880 174.949,296.375 174.452 C 296.538 174.288,300.227 174.073,304.574 173.975 L 312.478 173.797 312.787 172.371 C 313.445 169.328,314.795 167.912,314.795 170.263 C 314.795 171.038,315.881 171.406,319.259 171.777 C 322.286 172.110,322.492 172.188,323.519 173.396 C 326.204 176.553,326.707 177.368,327.311 179.546 C 327.664 180.822,328.451 182.673,329.058 183.661 C 330.339 185.742,331.675 189.140,332.610 192.692 C 333.482 196.003,334.587 198.863,335.300 199.650 C 335.618 200.001,336.036 201.428,336.229 202.821 C 336.505 204.812,336.872 205.795,337.946 207.411 C 338.697 208.542,339.577 210.247,339.900 211.199 C 340.223 212.152,340.803 213.332,341.189 213.822 C 341.574 214.312,341.889 215.091,341.889 215.554 C 341.889 216.016,342.455 217.808,343.147 219.536 L 344.404 222.677 342.914 225.866 C 341.283 229.354,340.320 230.810,338.210 232.977 C 337.446 233.761,336.531 235.067,336.176 235.879 C 335.822 236.690,335.353 237.465,335.135 237.599 C 334.917 237.734,334.001 239.314,333.099 241.110 C 331.980 243.337,330.957 244.818,329.883 245.763 C 328.951 246.584,327.881 248.039,327.261 249.332 C 326.684 250.533,325.649 252.209,324.960 253.058 C 322.786 255.737,323.248 257.069,326.951 258.796 C 330.099 260.264,331.551 260.156,331.551 258.453 C 331.551 258.132,332.579 256.784,333.835 255.458 C 335.425 253.780,336.192 252.663,336.356 251.786 C 336.486 251.094,336.877 250.107,337.224 249.595 C 337.572 249.082,338.317 247.941,338.880 247.059 C 339.442 246.176,340.262 245.134,340.702 244.742 C 341.142 244.349,341.999 242.758,342.607 241.206 C 343.215 239.653,344.089 237.728,344.549 236.927 C 345.008 236.127,345.492 234.959,345.622 234.332 C 345.753 233.705,346.330 232.601,346.904 231.878 C 347.478 231.155,348.120 229.903,348.329 229.096 C 348.538 228.289,349.264 226.717,349.942 225.602 C 350.620 224.487,351.391 222.960,351.657 222.208 C 351.922 221.456,352.552 220.232,353.056 219.489 C 353.561 218.745,354.066 217.385,354.180 216.466 C 354.293 215.547,354.943 213.729,355.624 212.427 C 356.305 211.124,356.863 209.806,356.863 209.498 C 356.863 209.189,357.558 208.154,358.408 207.197 C 359.615 205.838,360.168 204.761,360.933 202.283 C 361.472 200.537,362.221 198.577,362.598 197.927 C 362.975 197.277,363.535 195.512,363.843 194.005 C 364.151 192.498,364.792 190.595,365.267 189.776 C 365.743 188.957,366.133 187.834,366.135 187.281 C 366.140 186.063,367.580 182.866,368.570 181.876 C 369.505 180.941,370.053 179.893,370.053 179.043 C 370.053 176.220,373.691 171.839,376.045 171.828 C 380.170 171.807,381.091 171.182,381.100 168.404 C 381.107 165.850,381.609 165.940,367.380 165.953 L 354.545 165.964 354.441 168.309 C 354.310 171.265,354.394 171.332,358.766 171.760 C 363.267 172.201,363.470 172.388,363.422 176.048 C 363.395 178.040,363.171 179.288,362.610 180.556 C 362.184 181.519,361.507 183.601,361.105 185.182 C 360.704 186.763,359.897 188.807,359.312 189.725 C 358.726 190.642,357.776 192.778,357.200 194.471 C 356.624 196.164,355.768 198.221,355.298 199.042 C 354.820 199.876,354.331 201.479,354.191 202.674 C 353.505 208.492,349.855 209.795,348.700 204.635 C 348.164 202.242,347.366 200.148,346.563 199.033 C 346.114 198.409,345.707 196.978,345.470 195.187 C 345.245 193.488,344.732 191.636,344.202 190.605 C 343.712 189.653,342.932 187.565,342.467 185.964 C 342.003 184.363,341.202 182.432,340.687 181.673 C 340.172 180.914,339.745 180.034,339.739 179.719 C 339.733 179.403,339.334 178.342,338.851 177.362 C 336.961 173.519,337.619 172.093,341.460 171.711 C 344.812 171.377,345.098 171.137,345.098 168.659 C 345.098 165.712,346.815 165.901,320.583 165.961 C 301.049 166.005,296.890 165.930,296.557 165.529 C 296.273 165.187,296.196 162.350,296.295 155.873 L 296.435 146.702 295.488 146.593 C 294.915 146.526,294.351 146.723,294.062 147.089 M124.599 164.750 C 119.402 165.684,117.638 166.216,116.161 167.297 C 115.312 167.918,113.780 168.832,112.758 169.329 C 108.756 171.272,103.407 176.804,100.880 181.610 L 98.991 185.205 98.727 190.082 C 98.348 197.105,98.772 205.672,99.558 206.871 C 99.895 207.386,100.581 208.897,101.082 210.229 C 101.584 211.562,102.377 213.054,102.843 213.545 C 103.310 214.037,103.805 214.892,103.942 215.447 C 104.093 216.059,104.908 217.021,106.017 217.896 C 107.021 218.689,108.358 219.938,108.987 220.671 C 109.617 221.405,110.660 222.214,111.305 222.468 C 111.950 222.723,112.799 223.207,113.191 223.542 C 116.715 226.561,134.453 226.683,137.968 223.713 C 138.262 223.464,139.251 222.935,140.166 222.537 C 141.081 222.139,142.114 221.379,142.463 220.847 C 142.811 220.315,143.800 219.578,144.660 219.210 C 146.434 218.450,149.376 216.165,149.376 215.548 C 149.376 215.323,149.750 214.580,150.207 213.897 C 156.943 203.828,158.328 191.158,153.706 181.899 C 153.146 180.776,152.591 179.456,152.473 178.966 C 151.650 175.551,147.480 170.722,144.437 169.662 C 143.842 169.454,142.778 168.580,142.072 167.718 C 140.622 165.948,140.017 165.723,134.494 164.896 C 130.508 164.299,127.363 164.253,124.599 164.750 M252.850 164.899 C 249.175 165.571,249.062 165.623,246.636 167.739 C 245.431 168.790,244.030 169.752,243.524 169.878 C 243.017 170.004,242.248 170.438,241.814 170.843 C 241.380 171.247,240.719 171.757,240.346 171.975 C 239.972 172.193,239.251 172.665,238.744 173.025 C 237.285 174.060,237.077 173.573,237.077 169.130 C 237.077 165.737,236.981 165.003,236.515 164.825 C 235.629 164.485,231.730 165.776,229.715 167.076 C 227.272 168.654,226.548 168.901,222.512 169.536 C 217.326 170.352,215.937 172.733,219.844 174.111 C 221.779 174.794,225.526 177.676,225.798 178.691 C 226.129 179.924,226.036 214.220,225.698 215.971 C 225.096 219.084,218.224 221.695,217.636 219.033 C 217.511 218.467,217.347 217.803,217.272 217.558 C 217.176 217.248,216.227 217.112,214.148 217.112 C 208.390 217.112,208.347 216.862,208.844 185.918 C 209.099 169.970,209.072 166.238,208.695 165.926 C 208.220 165.533,206.335 165.713,197.861 166.964 C 195.802 167.268,192.623 167.628,190.797 167.764 C 187.113 168.037,186.280 168.599,186.516 170.653 C 186.626 171.613,186.745 171.671,189.305 172.035 C 197.661 173.220,197.487 172.771,197.497 193.127 L 197.504 208.891 196.410 211.045 C 195.656 212.529,194.963 213.373,194.182 213.762 C 193.558 214.072,192.640 214.806,192.142 215.392 C 189.716 218.247,178.912 218.233,177.477 215.374 C 177.148 214.719,176.321 213.804,175.639 213.340 C 174.805 212.774,174.193 211.938,173.772 210.794 C 173.428 209.857,172.895 208.529,172.587 207.843 C 171.817 206.128,171.561 181.753,172.227 173.619 C 173.004 164.135,173.715 164.891,165.379 166.324 C 162.362 166.842,158.311 167.436,156.377 167.644 L 152.860 168.021 152.328 169.294 C 151.558 171.138,152.003 171.565,155.217 172.062 C 160.781 172.922,160.549 172.011,160.667 193.492 C 160.791 215.945,160.905 216.733,164.605 220.499 C 169.037 225.010,171.290 226.005,177.110 226.019 C 180.815 226.028,187.166 224.685,187.166 223.892 C 187.166 223.747,188.107 223.127,189.258 222.514 C 190.408 221.901,191.551 221.156,191.798 220.858 C 192.588 219.906,196.441 217.751,196.982 217.959 C 197.385 218.114,197.506 218.873,197.509 221.290 C 197.515 224.972,197.719 225.932,198.552 226.196 C 199.505 226.499,207.228 224.742,209.342 223.742 C 211.758 222.599,216.042 221.270,216.342 221.571 C 216.469 221.697,216.734 222.471,216.931 223.289 L 217.291 224.777 231.183 224.777 L 245.076 224.777 245.380 223.239 C 245.789 221.172,245.048 219.964,243.372 219.964 C 240.774 219.964,238.491 218.954,237.902 217.543 C 236.756 214.802,236.525 183.359,237.627 180.114 C 239.302 175.177,247.982 172.107,254.616 174.103 C 256.377 174.633,260.250 178.112,260.250 179.164 C 260.250 179.486,260.771 180.236,261.408 180.831 C 262.898 182.221,263.028 183.982,263.022 202.674 C 263.016 219.902,263.196 219.280,258.056 219.841 C 254.922 220.183,253.058 223.015,254.991 224.497 C 255.752 225.080,282.117 224.882,282.833 224.288 C 284.418 222.972,283.116 219.964,280.960 219.964 C 279.203 219.964,275.915 218.808,275.491 218.042 C 275.200 217.514,275.016 212.093,274.874 199.822 C 274.700 184.838,274.591 182.201,274.107 181.283 C 273.796 180.695,273.249 178.930,272.892 177.362 C 272.214 174.390,271.667 173.603,267.424 169.484 C 266.762 168.842,266.040 167.954,265.819 167.511 C 264.576 165.019,258.686 163.833,252.850 164.899 M128.499 171.517 C 129.687 171.733,131.027 171.979,131.476 172.062 C 132.284 172.212,135.390 174.730,138.146 177.471 C 138.930 178.250,140.198 180.106,140.963 181.594 L 142.355 184.300 142.901 191.856 C 143.613 201.698,142.995 210.748,141.407 213.730 C 140.888 214.705,140.463 215.702,140.463 215.946 C 140.463 216.606,138.097 218.026,135.472 218.942 C 129.856 220.900,120.461 219.036,119.074 215.688 C 118.822 215.080,118.145 214.339,117.569 214.042 C 116.964 213.729,116.293 212.945,115.981 212.187 C 115.683 211.464,115.161 210.553,114.821 210.160 C 113.741 208.916,112.637 206.733,112.135 204.852 C 111.868 203.850,111.395 202.434,111.083 201.705 C 109.492 197.979,109.585 183.772,111.216 181.481 C 111.598 180.945,112.239 179.628,112.640 178.556 C 113.230 176.978,114.887 174.609,116.913 172.446 C 117.813 171.485,125.111 170.899,128.499 171.517 " stroke="none" fill="#74869b" fill-rule="evenodd"></path><path id="path2" d="M82.264 35.196 C 82.901 35.275,83.944 35.275,84.581 35.196 C 85.218 35.116,84.697 35.052,83.422 35.052 C 82.148 35.052,81.627 35.116,82.264 35.196 M98.846 35.193 C 99.388 35.275,100.190 35.273,100.629 35.189 C 101.067 35.104,100.624 35.037,99.643 35.040 C 98.663 35.042,98.304 35.111,98.846 35.193 M144.302 35.196 C 144.943 35.275,145.906 35.274,146.441 35.192 C 146.977 35.111,146.453 35.046,145.276 35.048 C 144.100 35.050,143.662 35.117,144.302 35.196 M160.517 35.183 C 160.860 35.273,161.422 35.273,161.765 35.183 C 162.108 35.094,161.827 35.020,161.141 35.020 C 160.455 35.020,160.174 35.094,160.517 35.183 M109.188 37.433 C 109.188 38.316,109.258 38.676,109.343 38.235 C 109.427 37.794,109.427 37.072,109.343 36.631 C 109.258 36.190,109.188 36.551,109.188 37.433 M266.799 45.276 C 266.799 47.335,266.857 48.177,266.929 47.148 C 267.002 46.119,267.002 44.434,266.929 43.405 C 266.857 42.375,266.799 43.217,266.799 45.276 M256.786 44.742 C 256.789 45.722,256.858 46.081,256.940 45.539 C 257.022 44.997,257.020 44.195,256.935 43.756 C 256.851 43.318,256.784 43.761,256.786 44.742 M98.534 51.515 C 98.535 54.064,98.592 55.060,98.660 53.728 C 98.729 52.397,98.729 50.311,98.659 49.094 C 98.590 47.877,98.534 48.966,98.534 51.515 M159.084 48.128 C 159.084 48.815,159.158 49.095,159.248 48.752 C 159.337 48.409,159.337 47.848,159.248 47.504 C 159.158 47.161,159.084 47.442,159.084 48.128 M150.563 57.219 C 150.564 58.592,150.629 59.110,150.706 58.370 C 150.783 57.630,150.782 56.507,150.703 55.874 C 150.624 55.242,150.561 55.847,150.563 57.219 M179.049 55.971 C 179.049 56.658,179.122 56.939,179.212 56.595 C 179.302 56.252,179.302 55.691,179.212 55.348 C 179.122 55.004,179.049 55.285,179.049 55.971 M85.363 67.736 C 85.363 73.520,85.412 75.887,85.472 72.995 C 85.532 70.102,85.532 65.370,85.472 62.478 C 85.412 59.586,85.363 61.952,85.363 67.736 M158.770 60.250 C 158.770 61.916,158.831 62.598,158.906 61.765 C 158.981 60.931,158.981 59.568,158.906 58.734 C 158.831 57.901,158.770 58.583,158.770 60.250 M286.720 66.199 C 287.063 66.289,287.625 66.289,287.968 66.199 C 288.311 66.110,288.030 66.036,287.344 66.036 C 286.658 66.036,286.377 66.110,286.720 66.199 M187.790 68.344 C 188.231 68.429,188.953 68.429,189.394 68.344 C 189.835 68.259,189.474 68.190,188.592 68.190 C 187.709 68.190,187.348 68.259,187.790 68.344 M279.768 75.118 C 280.209 75.203,280.931 75.203,281.373 75.118 C 281.814 75.033,281.453 74.963,280.570 74.963 C 279.688 74.963,279.327 75.033,279.768 75.118 M158.386 76.649 C 158.386 77.531,158.455 77.892,158.540 77.451 C 158.625 77.010,158.625 76.288,158.540 75.847 C 158.455 75.406,158.386 75.766,158.386 76.649 M182.280 75.845 C 183.809 75.912,186.215 75.911,187.628 75.844 C 189.040 75.776,187.790 75.721,184.848 75.722 C 181.907 75.722,180.752 75.778,182.280 75.845 M178.380 80.392 C 178.379 82.157,178.439 82.924,178.514 82.096 C 178.588 81.269,178.589 79.825,178.516 78.888 C 178.442 77.950,178.381 78.627,178.380 80.392 M150.565 80.570 C 150.565 82.041,150.628 82.643,150.705 81.907 C 150.782 81.172,150.782 79.969,150.705 79.234 C 150.628 78.498,150.565 79.100,150.565 80.570 M98.532 84.314 C 98.533 86.667,98.590 87.583,98.660 86.350 C 98.730 85.116,98.729 83.191,98.659 82.072 C 98.588 80.952,98.531 81.961,98.532 84.314 M158.034 83.957 C 158.037 84.938,158.106 85.296,158.188 84.754 C 158.270 84.213,158.268 83.410,158.183 82.972 C 158.099 82.533,158.032 82.977,158.034 83.957 M266.816 89.127 C 266.816 92.950,266.868 94.514,266.932 92.602 C 266.997 90.691,266.997 87.562,266.932 85.651 C 266.868 83.739,266.816 85.303,266.816 89.127 M228.274 88.592 C 228.276 89.768,228.343 90.207,228.422 89.566 C 228.502 88.925,228.500 87.962,228.419 87.427 C 228.337 86.891,228.272 87.415,228.274 88.592 M305.331 101.783 C 305.331 109.234,305.378 112.332,305.436 108.669 C 305.494 105.005,305.494 98.909,305.436 95.122 C 305.379 91.334,305.331 94.332,305.331 101.783 M178.343 90.374 C 178.347 91.159,178.420 91.438,178.505 90.994 C 178.591 90.551,178.587 89.909,178.498 89.568 C 178.409 89.227,178.339 89.590,178.343 90.374 M150.196 92.335 C 150.196 93.414,150.263 93.855,150.344 93.316 C 150.426 92.776,150.426 91.894,150.344 91.355 C 150.263 90.816,150.196 91.257,150.196 92.335 M85.678 93.583 C 85.680 94.955,85.745 95.473,85.822 94.734 C 85.899 93.994,85.898 92.871,85.819 92.238 C 85.740 91.605,85.677 92.210,85.678 93.583 M178.388 98.396 C 178.388 100.651,178.446 101.573,178.517 100.446 C 178.587 99.318,178.587 97.473,178.517 96.346 C 178.446 95.218,178.388 96.141,178.388 98.396 M98.863 98.217 C 98.865 99.394,98.931 99.832,99.011 99.191 C 99.090 98.551,99.088 97.588,99.007 97.052 C 98.926 96.517,98.861 97.041,98.863 98.217 M238.966 99.109 C 238.966 100.187,239.033 100.628,239.115 100.089 C 239.196 99.550,239.196 98.668,239.115 98.128 C 239.033 97.589,238.966 98.030,238.966 99.109 M256.809 112.299 C 256.809 113.966,256.870 114.648,256.946 113.815 C 257.021 112.981,257.021 111.618,256.946 110.784 C 256.870 109.951,256.809 110.633,256.809 112.299 M238.613 111.765 C 238.615 112.941,238.682 113.379,238.761 112.739 C 238.840 112.098,238.839 111.135,238.757 110.600 C 238.676 110.064,238.611 110.588,238.613 111.765 M267.106 111.943 C 267.106 112.629,267.179 112.910,267.269 112.567 C 267.359 112.224,267.359 111.662,267.269 111.319 C 267.179 110.976,267.106 111.257,267.106 111.943 M227.890 112.656 C 227.890 113.342,227.964 113.623,228.053 113.280 C 228.143 112.937,228.143 112.375,228.053 112.032 C 227.964 111.689,227.890 111.970,227.890 112.656 M168.354 113.012 C 168.354 113.699,168.427 113.980,168.517 113.636 C 168.606 113.293,168.606 112.732,168.517 112.389 C 168.427 112.045,168.354 112.326,168.354 113.012 M91.979 117.759 C 91.979 117.820,92.500 118.341,93.137 118.917 L 94.296 119.964 93.249 118.806 C 92.273 117.726,91.979 117.483,91.979 117.759 M243.405 118.612 C 243.846 118.697,244.568 118.697,245.009 118.612 C 245.450 118.527,245.089 118.457,244.207 118.457 C 243.324 118.457,242.963 118.527,243.405 118.612 M187.973 118.972 C 188.515 119.054,189.317 119.052,189.755 118.968 C 190.194 118.883,189.750 118.816,188.770 118.819 C 187.790 118.821,187.431 118.890,187.973 118.972 M124.694 120.044 C 125.335 120.124,126.298 120.122,126.833 120.041 C 127.369 119.959,126.845 119.895,125.668 119.897 C 124.492 119.899,124.054 119.965,124.694 120.044 M246.702 125.030 C 246.996 125.138,247.558 125.487,247.950 125.804 C 248.657 126.377,248.657 126.375,247.984 125.579 C 247.610 125.138,247.049 124.790,246.736 124.805 C 246.254 124.829,246.248 124.863,246.702 125.030 M115.597 128.588 C 115.940 128.678,116.502 128.678,116.845 128.588 C 117.188 128.498,116.907 128.425,116.221 128.425 C 115.535 128.425,115.254 128.498,115.597 128.588 M59.447 137.156 C 60.085 137.235,61.127 137.235,61.765 137.156 C 62.402 137.077,61.881 137.013,60.606 137.013 C 59.332 137.013,58.810 137.077,59.447 137.156 M80.749 142.246 C 81.515 143.030,82.221 143.672,82.319 143.672 C 82.417 143.672,81.871 143.030,81.105 142.246 C 80.339 141.462,79.632 140.820,79.534 140.820 C 79.436 140.820,79.983 141.462,80.749 142.246 M90.999 153.476 C 91.003 154.260,91.076 154.539,91.161 154.096 C 91.247 153.652,91.243 153.010,91.154 152.670 C 91.065 152.329,90.995 152.692,90.999 153.476 M296.371 154.724 C 296.371 155.998,296.435 156.520,296.515 155.882 C 296.594 155.245,296.594 154.202,296.515 153.565 C 296.435 152.928,296.371 153.449,296.371 154.724 M284.279 160.071 C 284.279 163.111,284.334 164.354,284.400 162.834 C 284.467 161.315,284.467 158.828,284.400 157.308 C 284.334 155.789,284.279 157.032,284.279 160.071 M237.179 167.023 C 237.181 168.004,237.251 168.362,237.332 167.820 C 237.414 167.278,237.412 166.476,237.328 166.038 C 237.243 165.599,237.176 166.043,237.179 167.023 M311.676 165.665 C 312.019 165.754,312.580 165.754,312.923 165.665 C 313.266 165.575,312.986 165.502,312.299 165.502 C 311.613 165.502,311.332 165.575,311.676 165.665 M303.837 166.031 C 304.379 166.113,305.181 166.111,305.620 166.026 C 306.058 165.942,305.615 165.875,304.635 165.877 C 303.654 165.880,303.295 165.949,303.837 166.031 M321.836 166.027 C 322.277 166.112,322.999 166.112,323.440 166.027 C 323.881 165.942,323.520 165.873,322.638 165.873 C 321.756 165.873,321.395 165.942,321.836 166.027 M335.740 166.027 C 336.181 166.112,336.903 166.112,337.344 166.027 C 337.785 165.942,337.424 165.873,336.542 165.873 C 335.660 165.873,335.299 165.942,335.740 166.027 M361.056 166.028 C 361.499 166.113,362.141 166.110,362.482 166.020 C 362.823 165.931,362.460 165.861,361.676 165.865 C 360.891 165.869,360.612 165.942,361.056 166.028 M373.534 166.028 C 373.977 166.113,374.619 166.110,374.960 166.020 C 375.300 165.931,374.938 165.861,374.153 165.865 C 373.369 165.869,373.090 165.942,373.534 166.028 M354.118 168.627 C 354.118 169.706,354.184 170.147,354.266 169.608 C 354.348 169.069,354.348 168.186,354.266 167.647 C 354.184 167.108,354.118 167.549,354.118 168.627 M27.897 168.449 C 27.901 169.234,27.974 169.512,28.060 169.069 C 28.145 168.625,28.142 167.984,28.052 167.643 C 27.963 167.302,27.893 167.665,27.897 168.449 M345.195 168.627 C 345.195 169.510,345.265 169.871,345.350 169.430 C 345.435 168.988,345.435 168.266,345.350 167.825 C 345.265 167.384,345.195 167.745,345.195 168.627 M381.195 168.449 C 381.199 169.234,381.272 169.512,381.357 169.069 C 381.443 168.625,381.439 167.984,381.350 167.643 C 381.261 167.302,381.191 167.665,381.195 168.449 M154.100 167.804 C 154.443 167.893,155.004 167.893,155.348 167.804 C 155.691 167.714,155.410 167.641,154.724 167.641 C 154.037 167.641,153.757 167.714,154.100 167.804 M188.859 167.810 C 189.300 167.895,190.022 167.895,190.463 167.810 C 190.905 167.725,190.544 167.655,189.661 167.655 C 188.779 167.655,188.418 167.725,188.859 167.810 M209.015 170.588 C 209.017 171.569,209.087 171.927,209.168 171.385 C 209.250 170.844,209.248 170.041,209.164 169.603 C 209.079 169.164,209.012 169.608,209.015 170.588 M313.593 169.528 C 313.457 169.884,313.521 170.001,313.769 169.848 C 313.985 169.715,314.302 169.827,314.473 170.097 C 314.653 170.381,314.786 170.419,314.790 170.186 C 314.800 169.433,313.833 168.901,313.593 169.528 M153.387 172.082 C 153.730 172.171,154.291 172.171,154.635 172.082 C 154.978 171.992,154.697 171.919,154.011 171.919 C 153.324 171.919,153.044 171.992,153.387 172.082 M280.129 173.871 C 280.572 173.956,281.214 173.953,281.555 173.863 C 281.896 173.774,281.533 173.704,280.749 173.708 C 279.964 173.712,279.685 173.785,280.129 173.871 M308.467 174.230 C 309.006 174.312,309.889 174.312,310.428 174.230 C 310.967 174.149,310.526 174.082,309.447 174.082 C 308.369 174.082,307.928 174.149,308.467 174.230 M363.382 175.579 C 363.384 176.560,363.454 176.918,363.536 176.377 C 363.618 175.835,363.615 175.033,363.531 174.594 C 363.446 174.156,363.379 174.599,363.382 175.579 M284.292 184.848 C 284.292 190.339,284.342 192.535,284.402 189.729 C 284.462 186.923,284.462 182.431,284.402 179.747 C 284.341 177.062,284.292 179.358,284.292 184.848 M171.943 177.540 C 171.943 178.619,172.010 179.060,172.091 178.520 C 172.173 177.981,172.173 177.099,172.091 176.560 C 172.010 176.020,171.943 176.462,171.943 177.540 M296.058 188.057 C 296.058 193.939,296.107 196.396,296.167 193.516 C 296.227 190.636,296.227 185.823,296.167 182.821 C 296.107 179.818,296.058 182.175,296.058 188.057 M160.538 180.214 C 160.540 181.390,160.607 181.829,160.686 181.188 C 160.766 180.547,160.764 179.585,160.683 179.049 C 160.601 178.513,160.536 179.037,160.538 180.214 M236.827 189.661 C 236.827 190.740,236.894 191.181,236.975 190.642 C 237.057 190.102,237.057 189.220,236.975 188.681 C 236.894 188.142,236.827 188.583,236.827 189.661 M109.932 191.444 C 109.932 193.307,109.993 194.069,110.066 193.137 C 110.139 192.206,110.139 190.682,110.066 189.750 C 109.993 188.819,109.932 189.581,109.932 191.444 M262.842 189.661 C 262.842 190.544,262.912 190.905,262.997 190.463 C 263.082 190.022,263.082 189.300,262.997 188.859 C 262.912 188.418,262.842 188.779,262.842 189.661 M98.493 191.800 C 98.493 192.683,98.562 193.044,98.647 192.602 C 98.732 192.161,98.732 191.439,98.647 190.998 C 98.562 190.557,98.493 190.918,98.493 191.800 M156.635 193.939 C 156.635 195.802,156.695 196.564,156.768 195.633 C 156.842 194.701,156.842 193.177,156.768 192.246 C 156.695 191.315,156.635 192.077,156.635 193.939 M160.578 197.861 C 160.578 201.881,160.630 203.525,160.694 201.515 C 160.757 199.505,160.757 196.217,160.694 194.207 C 160.630 192.197,160.578 193.841,160.578 197.861 M143.049 196.257 C 143.053 197.041,143.126 197.320,143.211 196.876 C 143.296 196.433,143.293 195.791,143.204 195.450 C 143.115 195.110,143.045 195.472,143.049 196.257 M236.831 196.970 C 236.833 198.146,236.899 198.584,236.979 197.944 C 237.058 197.303,237.056 196.340,236.975 195.805 C 236.894 195.269,236.829 195.793,236.831 196.970 M208.706 203.030 C 208.706 206.952,208.758 208.605,208.822 206.703 C 208.886 204.802,208.886 201.594,208.822 199.573 C 208.759 197.553,208.706 199.109,208.706 203.030 M98.478 198.217 C 98.478 198.904,98.552 199.184,98.641 198.841 C 98.731 198.498,98.731 197.937,98.641 197.594 C 98.552 197.250,98.478 197.531,98.478 198.217 M143.061 201.604 C 143.064 202.585,143.133 202.943,143.215 202.402 C 143.297 201.860,143.295 201.057,143.210 200.619 C 143.125 200.181,143.058 200.624,143.061 201.604 M171.926 204.100 C 171.930 204.884,172.003 205.163,172.088 204.720 C 172.173 204.276,172.170 203.634,172.081 203.294 C 171.992 202.953,171.922 203.316,171.926 204.100 M275.004 209.269 C 275.004 211.720,275.061 212.723,275.130 211.497 C 275.200 210.272,275.200 208.266,275.130 207.041 C 275.061 205.816,275.004 206.818,275.004 209.269 M160.511 207.843 C 160.511 208.529,160.584 208.810,160.674 208.467 C 160.763 208.124,160.763 207.562,160.674 207.219 C 160.584 206.876,160.511 207.157,160.511 207.843 M284.246 208.734 C 284.248 209.911,284.314 210.349,284.394 209.708 C 284.473 209.068,284.472 208.105,284.390 207.569 C 284.309 207.034,284.244 207.558,284.246 208.734 M237.197 210.695 C 237.197 212.166,237.259 212.767,237.336 212.032 C 237.413 211.297,237.413 210.094,237.336 209.358 C 237.259 208.623,237.197 209.225,237.197 210.695 M225.751 213.904 C 225.751 214.590,225.825 214.871,225.914 214.528 C 226.004 214.184,226.004 213.623,225.914 213.280 C 225.825 212.937,225.751 213.217,225.751 213.904 M262.847 214.795 C 262.850 215.775,262.919 216.134,263.001 215.592 C 263.083 215.050,263.081 214.248,262.996 213.810 C 262.911 213.371,262.844 213.815,262.847 214.795 M128.973 219.866 C 129.613 219.946,130.576 219.944,131.112 219.863 C 131.647 219.781,131.123 219.716,129.947 219.718 C 128.770 219.720,128.332 219.787,128.973 219.866 M64.260 220.226 C 65.192 220.300,66.716 220.300,67.647 220.226 C 68.578 220.153,67.816 220.093,65.954 220.093 C 64.091 220.093,63.329 220.153,64.260 220.226 M229.161 224.864 C 230.788 224.931,233.355 224.930,234.865 224.864 C 236.376 224.797,235.045 224.743,231.907 224.743 C 228.770 224.744,227.534 224.798,229.161 224.864 M266.060 224.865 C 267.786 224.930,270.513 224.930,272.121 224.864 C 273.729 224.798,272.317 224.744,268.984 224.745 C 265.651 224.745,264.335 224.799,266.060 224.865 M125.762 226.277 C 126.205 226.362,126.847 226.359,127.188 226.270 C 127.529 226.181,127.166 226.111,126.381 226.115 C 125.597 226.119,125.318 226.192,125.762 226.277 M298.667 226.277 C 299.111 226.362,299.752 226.359,300.093 226.270 C 300.434 226.181,300.071 226.111,299.287 226.115 C 298.503 226.119,298.224 226.192,298.667 226.277 M62.121 226.984 C 62.464 227.073,63.026 227.073,63.369 226.984 C 63.712 226.894,63.431 226.821,62.745 226.821 C 62.059 226.821,61.778 226.894,62.121 226.984 M330.998 259.502 C 330.812 259.679,330.339 259.901,329.947 259.995 C 329.270 260.158,329.273 260.169,329.992 260.208 C 330.409 260.231,330.950 260.009,331.194 259.715 C 331.678 259.132,331.543 258.984,330.998 259.502 M242.028 275.782 C 232.354 280.611,227.822 282.698,227.306 282.561 C 226.895 282.452,224.075 280.756,221.037 278.793 C 214.741 274.722,214.724 274.718,211.995 276.673 C 208.995 278.821,208.703 278.669,206.879 274.018 C 206.043 271.885,205.176 269.919,204.953 269.651 C 204.619 269.248,201.224 269.162,185.693 269.162 L 166.839 269.162 163.723 270.929 C 149.153 279.187,132.668 279.825,118.060 272.695 C 115.639 271.514,113.365 270.597,113.006 270.657 C 112.646 270.717,108.667 275.339,104.164 280.927 C 96.383 290.581,93.496 293.616,89.502 296.343 C 88.221 297.218,88.471 297.379,84.090 292.870 C 79.395 288.038,79.868 288.141,76.384 291.187 C 72.435 294.639,71.680 295.173,71.076 294.941 C 70.780 294.828,66.660 291.151,61.918 286.770 C 56.712 281.958,53.015 278.802,52.585 278.799 C 51.918 278.795,37.222 291.481,27.510 300.446 C 25.332 302.455,23.416 304.100,23.251 304.100 C 23.087 304.100,22.480 304.556,21.904 305.115 C 20.128 306.834,2.240 322.542,1.087 323.395 C 0.420 323.887,0.000 324.517,0.000 325.022 L 0.000 325.847 20.689 325.847 C 38.629 325.847,41.404 325.777,41.580 325.319 C 41.697 325.014,39.411 320.643,36.175 314.983 C 29.350 303.045,29.174 304.100,37.991 304.100 C 45.685 304.100,44.864 304.799,45.444 297.755 C 45.698 294.676,46.012 291.916,46.142 291.622 C 46.377 291.092,52.822 286.152,54.403 285.291 C 55.417 284.738,54.779 284.208,67.486 296.168 C 72.747 301.119,77.204 305.169,77.392 305.169 C 77.921 305.169,78.378 303.857,79.107 300.236 C 80.049 295.561,79.646 295.627,86.464 299.029 C 93.567 302.573,92.411 302.583,97.621 298.930 C 99.999 297.264,102.231 295.900,102.583 295.900 C 102.934 295.900,109.234 300.395,116.584 305.888 C 145.179 327.263,143.190 326.149,139.075 318.480 C 137.228 315.036,122.039 286.402,119.918 282.362 C 118.451 279.571,118.109 279.585,134.534 281.771 C 144.610 283.112,149.244 283.866,149.663 284.234 C 149.995 284.526,157.567 291.219,166.488 299.108 C 175.410 306.997,182.921 313.534,183.179 313.636 C 184.260 314.060,184.224 312.828,182.869 303.209 C 181.411 292.857,181.253 291.080,181.765 290.764 C 182.188 290.503,182.620 290.847,196.954 302.852 C 233.253 333.254,231.468 332.389,217.043 312.592 C 202.036 291.996,202.266 292.335,203.301 292.335 C 203.867 292.335,204.473 292.656,220.894 301.650 C 233.523 308.567,235.651 309.595,235.651 308.781 C 235.651 308.528,228.352 300.604,212.040 283.148 C 210.083 281.054,210.058 280.740,211.756 279.590 C 213.487 278.417,213.452 278.400,218.980 283.244 C 221.776 285.695,224.365 287.701,224.733 287.701 C 225.101 287.701,231.746 284.492,239.500 280.570 C 247.254 276.649,253.764 273.440,253.968 273.440 C 254.172 273.440,258.880 277.972,264.432 283.512 L 274.525 293.583 283.968 293.761 L 293.411 293.939 305.381 306.150 C 311.964 312.865,317.497 318.360,317.677 318.360 C 318.336 318.360,317.961 316.894,316.043 311.975 C 314.048 306.857,313.732 305.517,314.528 305.537 C 314.773 305.544,321.070 309.727,328.520 314.833 C 349.297 329.070,348.743 329.036,337.639 315.381 C 333.729 310.572,330.352 306.307,330.136 305.903 C 329.298 304.338,330.817 304.847,348.128 311.936 L 354.902 314.710 362.032 315.505 C 365.954 315.942,369.454 316.454,369.811 316.643 C 372.116 317.861,375.711 318.211,381.379 317.770 C 383.996 317.566,384.348 317.455,384.518 316.778 C 384.976 314.952,384.270 314.349,377.844 311.074 C 371.384 307.783,370.053 306.889,370.053 305.841 C 370.053 304.705,370.622 304.813,374.070 306.606 C 379.747 309.559,379.398 308.680,372.846 303.526 C 368.412 300.038,369.034 300.135,362.909 301.983 C 358.467 303.324,347.454 305.882,346.124 305.882 C 345.806 305.882,341.154 301.856,335.785 296.935 C 323.901 286.041,325.333 286.802,321.067 289.109 C 316.775 291.429,318.041 292.051,306.925 282.175 C 300.168 276.173,297.260 273.805,296.639 273.802 C 296.162 273.799,292.031 275.561,287.459 277.718 C 282.886 279.875,278.864 281.640,278.521 281.639 C 278.177 281.639,274.412 278.851,270.153 275.445 C 261.768 268.738,261.909 268.818,258.394 268.811 L 256.003 268.806 242.028 275.782 " stroke="none" fill="#65a5da" fill-rule="evenodd"></path></g></svg>